<?xml version="1.0" encoding="UTF-8" standalone="no"?>
<!-- Created with Inkscape (http://www.inkscape.org/) -->

<svg
   width="114.78517mm"
   height="30.197037mm"
   viewBox="0 0 114.78517 30.197037"
   version="1.1"
   id="svg3891"
   inkscape:version="1.2.2 (b0a8486541, 2022-12-01)"
   sodipodi:docname="logotipo.svg"
   xmlns:inkscape="http://www.inkscape.org/namespaces/inkscape"
   xmlns:sodipodi="http://sodipodi.sourceforge.net/DTD/sodipodi-0.dtd"
   xmlns="http://www.w3.org/2000/svg"
   xmlns:svg="http://www.w3.org/2000/svg">
  <sodipodi:namedview
     id="namedview3893"
     pagecolor="#ffffff"
     bordercolor="#000000"
     borderopacity="0.25"
     inkscape:showpageshadow="2"
     inkscape:pageopacity="0.0"
     inkscape:pagecheckerboard="0"
     inkscape:deskcolor="#d1d1d1"
     inkscape:document-units="mm"
     showgrid="false"
     inkscape:zoom="1.5244262"
     inkscape:cx="237.79439"
     inkscape:cy="38.375095"
     inkscape:window-width="1600"
     inkscape:window-height="785"
     inkscape:window-x="0"
     inkscape:window-y="0"
     inkscape:window-maximized="1"
     inkscape:current-layer="layer1" />
  <defs
     id="defs3888">
    <clipPath
       clipPathUnits="userSpaceOnUse"
       id="clipPath88">
      <path
         d="M 0,0 H 1292.598 V 816.378 H 0 Z"
         id="path86" />
    </clipPath>
  </defs>
  <g
     inkscape:label="Capa 1"
     inkscape:groupmode="layer"
     id="layer1"
     transform="translate(-44.225595,-114.01058)">
    <g
       id="g82"
       transform="matrix(0.35277777,0,0,-0.35277777,-12.38169,374.9169)">
      <g
         id="g84"
         clip-path="url(#clipPath88)">
        <g
           id="g90"
           transform="translate(196.9607,739.577)">
          <path
             d="M 0,0 H 10.178 V -46.677 H -0.194 L -26.45,-15.429 V -46.677 H -36.499 V 0 h 10.373 L 0,-31.118 Z"
             style="fill:#e30613;fill-opacity:1;fill-rule:nonzero;stroke:none"
             id="path92" />
        </g>
        <path
           d="m 224.318,703.013 h 26.45 v 26.45 h -26.45 z m 27.034,36.564 c 1.296,0 2.528,-0.249 3.695,-0.745 1.167,-0.498 2.193,-1.179 3.079,-2.043 0.886,-0.865 1.577,-1.88 2.075,-3.047 0.496,-1.166 0.745,-2.421 0.745,-3.76 v -27.487 c 0,-1.341 -0.249,-2.594 -0.745,-3.76 -0.498,-1.167 -1.189,-2.183 -2.075,-3.047 -0.886,-0.866 -1.912,-1.546 -3.079,-2.043 -1.167,-0.497 -2.399,-0.745 -3.695,-0.745 h -27.488 c -1.34,0 -2.593,0.248 -3.76,0.745 -1.167,0.497 -2.183,1.177 -3.047,2.043 -0.865,0.864 -1.546,1.88 -2.042,3.047 -0.498,1.166 -0.746,2.419 -0.746,3.76 v 27.487 c 0,1.339 0.248,2.594 0.746,3.76 0.496,1.167 1.177,2.182 2.042,3.047 0.864,0.864 1.88,1.545 3.047,2.043 1.167,0.496 2.42,0.745 3.76,0.745 z"
           style="fill:#e30613;fill-opacity:1;fill-rule:nonzero;stroke:none"
           id="path94" />
        <path
           d="m 278.061,718.378 h 26.45 v 11.086 h -26.45 z m 36.628,-0.519 c 0,-1.296 -0.259,-2.528 -0.778,-3.695 -0.518,-1.167 -1.21,-2.194 -2.074,-3.079 -0.865,-0.887 -1.88,-1.579 -3.047,-2.075 -1.167,-0.497 -2.421,-0.746 -3.76,-0.746 h -0.454 c 1.642,-1.944 3.327,-3.933 5.056,-5.964 1.729,-2.032 3.414,-4.019 5.057,-5.964 V 692.9 h -10.373 l -12.901,15.364 -13.354,-0.064 c 0.129,0 0.194,-0.13 0.194,-0.389 h -0.065 c -0.087,0 -0.129,0.021 -0.129,0.064 V 692.9 h -10.049 v 46.612 h 37.018 c 1.339,0 2.593,-0.249 3.76,-0.745 1.167,-0.498 2.182,-1.19 3.047,-2.075 0.864,-0.886 1.556,-1.912 2.074,-3.079 0.519,-1.167 0.778,-2.399 0.778,-3.696 z"
           style="fill:#e30613;fill-opacity:1;fill-rule:nonzero;stroke:none"
           id="path96" />
        <g
           id="g98"
           transform="translate(367.9139,725.6387)">
          <path
             d="m 0,0 h -10.178 v 3.825 h -26.451 v -8.169 h 27.034 c 1.297,0 2.529,-0.249 3.696,-0.745 1.166,-0.497 2.193,-1.178 3.079,-2.042 0.885,-0.865 1.577,-1.88 2.074,-3.047 C -0.249,-11.345 0,-12.599 0,-13.938 v -9.206 c 0,-1.34 -0.249,-2.593 -0.746,-3.76 -0.497,-1.167 -1.189,-2.183 -2.074,-3.047 -0.886,-0.865 -1.913,-1.546 -3.079,-2.042 -1.167,-0.498 -2.399,-0.746 -3.696,-0.746 h -27.487 c -1.341,0 -2.594,0.248 -3.761,0.746 -1.166,0.496 -2.182,1.177 -3.047,2.042 -0.865,0.864 -1.545,1.88 -2.042,3.047 -0.497,1.167 -0.745,2.42 -0.745,3.76 v 4.343 h 10.048 v -3.824 h 26.451 v 8.168 h -26.904 c -1.341,0 -2.594,0.248 -3.761,0.746 -1.166,0.496 -2.182,1.177 -3.047,2.042 -0.865,0.864 -1.545,1.88 -2.042,3.047 -0.497,1.167 -0.745,2.42 -0.745,3.76 v 9.206 c 0,1.339 0.248,2.593 0.745,3.76 0.497,1.167 1.177,2.182 2.042,3.047 0.865,0.864 1.881,1.544 3.047,2.042 1.167,0.496 2.42,0.745 3.761,0.745 h 27.487 c 1.297,0 2.529,-0.249 3.696,-0.745 1.166,-0.498 2.193,-1.178 3.079,-2.042 0.885,-0.865 1.577,-1.88 2.074,-3.047 C -0.249,6.937 0,5.683 0,4.344 Z"
             style="fill:#e30613;fill-opacity:1;fill-rule:nonzero;stroke:none"
             id="path100" />
        </g>
        <path
           d="m 374.915,739.577 h 10.113 V 692.9 h -10.113 z"
           style="fill:#e30613;fill-opacity:1;fill-rule:nonzero;stroke:none"
           id="path102" />
        <path
           d="m 399.095,718.378 h 26.45 v 11.086 h -26.45 z m 36.629,-0.519 c 0,-1.296 -0.259,-2.528 -0.778,-3.695 -0.519,-1.167 -1.21,-2.194 -2.075,-3.079 -0.865,-0.887 -1.88,-1.579 -3.047,-2.075 -1.166,-0.497 -2.42,-0.746 -3.76,-0.746 h -0.453 c 1.642,-1.944 3.327,-3.933 5.056,-5.964 1.728,-2.032 3.414,-4.019 5.057,-5.964 V 692.9 H 425.351 L 412.45,708.264 399.095,708.2 c 0.13,0 0.195,-0.13 0.195,-0.389 h -0.065 c -0.087,0 -0.13,0.021 -0.13,0.064 V 692.9 h -10.048 v 46.612 h 37.017 c 1.34,0 2.594,-0.249 3.76,-0.745 1.167,-0.498 2.182,-1.19 3.047,-2.075 0.865,-0.886 1.556,-1.912 2.075,-3.079 0.519,-1.167 0.778,-2.399 0.778,-3.696 z"
           style="fill:#e30613;fill-opacity:1;fill-rule:nonzero;stroke:none"
           id="path104" />
        <g
           id="g106"
           transform="translate(485.8369,729.4636)">
          <path
             d="M 0,0 H -32.933 V -8.168 H -6.418 V -18.282 H -32.933 V -26.45 H 0 V -36.564 H -43.112 V 10.113 H 0 Z"
             style="fill:#e30613;fill-opacity:1;fill-rule:nonzero;stroke:none"
             id="path108" />
        </g>
        <g
           id="g110"
           transform="translate(161.2906,676.1643)">
          <path
             d="M 0,0 H -0.829 V 8.306 H 0 L 2.569,1.917 V 8.306 H 3.398 V 0 H 2.569 L 0,6.389 Z"
             style="fill:#1d1d1b;fill-opacity:1;fill-rule:nonzero;stroke:none"
             id="path112" />
        </g>
        <g
           id="g114"
           transform="translate(170.0766,677.7617)">
          <path
             d="m 0,0 v 5.111 c 0,0.682 -0.395,1.023 -1.184,1.023 -0.79,0 -1.184,-0.341 -1.184,-1.023 V 0 c 0,-0.682 0.394,-1.022 1.184,-1.022 C -0.395,-1.022 0,-0.682 0,0 M 0.829,5.111 V 0 c 0,-0.571 -0.168,-1.012 -0.503,-1.323 -0.336,-0.311 -0.837,-0.466 -1.504,-0.466 -0.667,0 -1.171,0.155 -1.51,0.466 -0.339,0.311 -0.509,0.752 -0.509,1.323 v 5.111 c 0,0.571 0.168,1.012 0.503,1.323 C -2.358,6.745 -1.857,6.9 -1.19,6.9 -0.523,6.9 -0.02,6.745 0.32,6.434 0.659,6.123 0.829,5.682 0.829,5.111"
             style="fill:#1d1d1b;fill-opacity:1;fill-rule:nonzero;stroke:none"
             id="path116" />
        </g>
        <g
           id="g118"
           transform="translate(175.9379,680.8923)">
          <path
             d="m 0,0 v 1.789 c 0,0.324 -0.091,0.575 -0.272,0.754 -0.182,0.179 -0.443,0.268 -0.782,0.268 h -0.959 v -3.833 h 0.959 C -0.351,-1.022 0,-0.682 0,0 m -2.013,-4.728 h -0.829 v 8.306 h 1.788 C -0.438,3.578 0.03,3.42 0.349,3.105 0.669,2.79 0.829,2.351 0.829,1.789 V 0 c 0,-0.869 -0.348,-1.423 -1.042,-1.661 L 1.243,-4.728 H 0.332 l -1.386,2.939 h -0.959 z"
             style="fill:#1d1d1b;fill-opacity:1;fill-rule:nonzero;stroke:none"
             id="path120" />
        </g>
        <g
           id="g122"
           transform="translate(181.9174,684.4703)">
          <path
             d="m 0,0 v -0.767 h -1.539 v -7.539 h -0.829 v 7.539 h -1.54 V 0 Z"
             style="fill:#1d1d1b;fill-opacity:1;fill-rule:nonzero;stroke:none"
             id="path124" />
        </g>
        <g
           id="g126"
           transform="translate(186.9499,676.1643)">
          <path
             d="m 0,0 h -3.493 v 8.306 h 3.375 V 7.539 H -2.664 V 4.6 h 2.072 V 3.834 H -2.664 V 0.767 H 0 Z"
             style="fill:#1d1d1b;fill-opacity:1;fill-rule:nonzero;stroke:none"
             id="path128" />
        </g>
        <g
           id="g130"
           transform="translate(194.4097,677.9532)">
          <path
             d="M 0,0 V 4.728 C 0,5.001 -0.093,5.239 -0.278,5.444 -0.464,5.648 -0.722,5.75 -1.054,5.75 h -1.077 v -6.772 h 1.077 c 0.332,0 0.59,0.1 0.776,0.3 C -0.093,-0.522 0,-0.281 0,0 M -1.054,-1.789 H -2.96 v 8.306 h 1.906 c 0.616,0 1.084,-0.158 1.403,-0.473 0.32,-0.315 0.48,-0.754 0.48,-1.316 V 0 c 0,-0.571 -0.158,-1.012 -0.474,-1.323 -0.316,-0.311 -0.785,-0.466 -1.409,-0.466"
             style="fill:#1d1d1b;fill-opacity:1;fill-rule:nonzero;stroke:none"
             id="path132" />
        </g>
        <g
           id="g134"
           transform="translate(200.9221,676.1643)">
          <path
             d="m 0,0 h -3.493 v 8.306 h 3.375 V 7.539 H -2.664 V 4.6 h 2.072 V 3.834 H -2.664 V 0.767 H 0 Z"
             style="fill:#1d1d1b;fill-opacity:1;fill-rule:nonzero;stroke:none"
             id="path136" />
        </g>
        <g
           id="g138"
           transform="translate(209.1871,677.7617)">
          <path
             d="m 0,0 c 0,-1.193 -0.667,-1.789 -2.001,-1.789 -1.334,0 -2.001,0.596 -2.001,1.789 v 1.086 h 0.829 v -1.137 c 0,-0.307 0.098,-0.545 0.296,-0.716 0.197,-0.17 0.489,-0.255 0.876,-0.255 0.387,0 0.679,0.085 0.876,0.255 0.197,0.171 0.296,0.403 0.296,0.697 0,0.294 -0.029,0.528 -0.089,0.702 -0.059,0.175 -0.179,0.36 -0.361,0.556 l -2.084,2.198 c -0.245,0.264 -0.412,0.522 -0.503,0.773 -0.091,0.252 -0.136,0.569 -0.136,0.952 0,0.571 0.163,1.012 0.491,1.323 0.328,0.311 0.823,0.466 1.486,0.466 1.271,0 1.907,-0.596 1.907,-1.789 V 4.025 h -0.829 v 1.137 c 0,0.307 -0.093,0.546 -0.279,0.716 -0.185,0.17 -0.463,0.256 -0.834,0.256 -0.372,0 -0.65,-0.086 -0.835,-0.256 -0.186,-0.17 -0.278,-0.405 -0.278,-0.703 0,-0.298 0.027,-0.532 0.082,-0.703 0.056,-0.17 0.178,-0.349 0.368,-0.536 L -0.604,1.738 C -0.375,1.465 -0.217,1.203 -0.13,0.952 -0.043,0.701 0,0.383 0,0"
             style="fill:#1d1d1b;fill-opacity:1;fill-rule:nonzero;stroke:none"
             id="path140" />
        </g>
        <g
           id="g142"
           transform="translate(212.9642,683.4736)">
          <path
             d="m 0,0 -0.971,-4.626 h 1.942 z m -0.616,0.997 h 1.244 l 1.74,-8.306 H 1.539 l -0.402,1.916 h -2.262 l -0.402,-1.916 h -0.829 z"
             style="fill:#1d1d1b;fill-opacity:1;fill-rule:nonzero;stroke:none"
             id="path144" />
        </g>
        <g
           id="g146"
           transform="translate(217.8189,676.1643)">
          <path
             d="M 0,0 H -0.829 V 8.306 H 0 L 2.569,1.917 V 8.306 H 3.398 V 0 H 2.569 L 0,6.389 Z"
             style="fill:#1d1d1b;fill-opacity:1;fill-rule:nonzero;stroke:none"
             id="path148" />
        </g>
        <g
           id="g150"
           transform="translate(226.6641,684.4703)">
          <path
             d="m 0,0 v -0.767 h -1.539 v -7.539 h -0.829 v 7.539 h -1.54 V 0 Z"
             style="fill:#1d1d1b;fill-opacity:1;fill-rule:nonzero;stroke:none"
             id="path152" />
        </g>
        <g
           id="g154"
           transform="translate(229.3758,683.4736)">
          <path
             d="m 0,0 -0.971,-4.626 h 1.942 z m -0.616,0.997 h 1.244 l 1.74,-8.306 H 1.539 l -0.402,1.916 h -2.262 l -0.402,-1.916 h -0.829 z"
             style="fill:#1d1d1b;fill-opacity:1;fill-rule:nonzero;stroke:none"
             id="path156" />
        </g>
        <g
           id="g158"
           transform="translate(234.2305,676.1643)">
          <path
             d="M 0,0 H -0.829 V 8.306 H 0 L 2.569,1.917 V 8.306 H 3.398 V 0 H 2.569 L 0,6.389 Z"
             style="fill:#1d1d1b;fill-opacity:1;fill-rule:nonzero;stroke:none"
             id="path160" />
        </g>
        <g
           id="g162"
           transform="translate(242.9573,677.9532)">
          <path
             d="M 0,0 V 4.728 C 0,5.001 -0.093,5.239 -0.278,5.444 -0.464,5.648 -0.722,5.75 -1.054,5.75 h -1.077 v -6.772 h 1.077 c 0.332,0 0.59,0.1 0.776,0.3 C -0.093,-0.522 0,-0.281 0,0 M -1.054,-1.789 H -2.96 v 8.306 h 1.906 c 0.616,0 1.084,-0.158 1.403,-0.473 0.32,-0.315 0.48,-0.754 0.48,-1.316 V 0 c 0,-0.571 -0.158,-1.012 -0.474,-1.323 -0.316,-0.311 -0.785,-0.466 -1.409,-0.466"
             style="fill:#1d1d1b;fill-opacity:1;fill-rule:nonzero;stroke:none"
             id="path164" />
        </g>
        <g
           id="g166"
           transform="translate(249.4697,676.1643)">
          <path
             d="m 0,0 h -3.493 v 8.306 h 3.375 V 7.539 H -2.664 V 4.6 h 2.072 V 3.834 H -2.664 V 0.767 H 0 Z"
             style="fill:#1d1d1b;fill-opacity:1;fill-rule:nonzero;stroke:none"
             id="path168" />
        </g>
        <g
           id="g170"
           transform="translate(254.0877,680.8923)">
          <path
             d="m 0,0 v 1.789 c 0,0.324 -0.091,0.575 -0.272,0.754 -0.182,0.179 -0.443,0.268 -0.782,0.268 h -0.959 v -3.833 h 0.959 C -0.351,-1.022 0,-0.682 0,0 m -2.013,-4.728 h -0.829 v 8.306 h 1.788 C -0.438,3.578 0.03,3.42 0.349,3.105 0.669,2.79 0.829,2.351 0.829,1.789 V 0 c 0,-0.869 -0.348,-1.423 -1.042,-1.661 L 1.243,-4.728 H 0.332 l -1.386,2.939 h -0.959 z"
             style="fill:#1d1d1b;fill-opacity:1;fill-rule:nonzero;stroke:none"
             id="path172" />
        </g>
        <g
           id="g174"
           transform="translate(263.4775,677.7617)">
          <path
             d="m 0,0 c 0,-1.193 -0.667,-1.789 -2.001,-1.789 -1.334,0 -2.001,0.596 -2.001,1.789 v 1.086 h 0.829 v -1.137 c 0,-0.307 0.098,-0.545 0.296,-0.716 0.197,-0.17 0.489,-0.255 0.876,-0.255 0.387,0 0.679,0.085 0.876,0.255 0.197,0.171 0.296,0.403 0.296,0.697 0,0.294 -0.029,0.528 -0.089,0.702 -0.059,0.175 -0.179,0.36 -0.361,0.556 l -2.084,2.198 c -0.245,0.264 -0.412,0.522 -0.503,0.773 -0.091,0.252 -0.136,0.569 -0.136,0.952 0,0.571 0.163,1.012 0.491,1.323 0.328,0.311 0.823,0.466 1.486,0.466 1.271,0 1.907,-0.596 1.907,-1.789 V 4.025 h -0.829 v 1.137 c 0,0.307 -0.093,0.546 -0.279,0.716 -0.185,0.17 -0.463,0.256 -0.834,0.256 -0.372,0 -0.65,-0.086 -0.835,-0.256 -0.186,-0.17 -0.278,-0.405 -0.278,-0.703 0,-0.298 0.027,-0.532 0.082,-0.703 0.056,-0.17 0.178,-0.349 0.368,-0.536 L -0.604,1.738 C -0.375,1.465 -0.217,1.203 -0.13,0.952 -0.043,0.701 0,0.383 0,0"
             style="fill:#1d1d1b;fill-opacity:1;fill-rule:nonzero;stroke:none"
             id="path176" />
        </g>
        <g
           id="g178"
           transform="translate(268.6281,677.7617)">
          <path
             d="m 0,0 v 5.111 c 0,0.682 -0.395,1.023 -1.184,1.023 -0.79,0 -1.184,-0.341 -1.184,-1.023 V 0 c 0,-0.682 0.394,-1.022 1.184,-1.022 C -0.395,-1.022 0,-0.682 0,0 M 0.829,5.111 V 0 c 0,-0.571 -0.168,-1.012 -0.503,-1.323 -0.336,-0.311 -0.837,-0.466 -1.504,-0.466 -0.667,0 -1.171,0.155 -1.51,0.466 -0.339,0.311 -0.509,0.752 -0.509,1.323 v 5.111 c 0,0.571 0.168,1.012 0.503,1.323 C -2.358,6.745 -1.857,6.9 -1.19,6.9 -0.523,6.9 -0.02,6.745 0.32,6.434 0.659,6.123 0.829,5.682 0.829,5.111"
             style="fill:#1d1d1b;fill-opacity:1;fill-rule:nonzero;stroke:none"
             id="path180" />
        </g>
        <g
           id="g182"
           transform="translate(271.6476,676.1643)">
          <path
             d="M 0,0 V 8.306 H 0.829 V 0.767 H 2.996 V 0 Z"
             style="fill:#1d1d1b;fill-opacity:1;fill-rule:nonzero;stroke:none"
             id="path184" />
        </g>
        <g
           id="g186"
           transform="translate(279.1429,677.7617)">
          <path
             d="M 0,0 V 6.709 H 0.829 V 0 c 0,-0.571 -0.168,-1.012 -0.503,-1.323 -0.336,-0.311 -0.837,-0.466 -1.504,-0.466 -0.667,0 -1.171,0.155 -1.51,0.466 -0.339,0.311 -0.509,0.752 -0.509,1.323 v 6.709 h 0.829 V 0 c 0,-0.682 0.394,-1.022 1.184,-1.022 C -0.395,-1.022 0,-0.682 0,0"
             style="fill:#1d1d1b;fill-opacity:1;fill-rule:nonzero;stroke:none"
             id="path188" />
        </g>
        <g
           id="g190"
           transform="translate(285.1225,677.7617)">
          <path
             d="M 0,0 V 0.703 H 0.829 V 0 c 0,-0.571 -0.162,-1.012 -0.486,-1.323 -0.323,-0.311 -0.809,-0.466 -1.456,-0.466 -0.647,0 -1.137,0.155 -1.468,0.466 -0.332,0.311 -0.498,0.752 -0.498,1.323 v 5.111 c 0,0.571 0.162,1.012 0.486,1.323 C -2.27,6.745 -1.784,6.9 -1.137,6.9 -0.49,6.9 0,6.745 0.332,6.434 0.663,6.123 0.829,5.682 0.829,5.111 V 3.897 H 0 v 1.214 c 0,0.682 -0.375,1.023 -1.125,1.023 -0.75,0 -1.125,-0.341 -1.125,-1.023 V 0 c 0,-0.682 0.375,-1.022 1.125,-1.022 C -0.375,-1.022 0,-0.682 0,0"
             style="fill:#1d1d1b;fill-opacity:1;fill-rule:nonzero;stroke:none"
             id="path192" />
        </g>
        <g
           id="g194"
           transform="translate(289.6812,676.931)">
          <path
             d="M 0,0 V -0.767 H -2.013 V 0 h 0.592 V 6.773 H -2.013 V 7.539 H 0 V 6.773 H -0.592 V 0 Z"
             style="fill:#1d1d1b;fill-opacity:1;fill-rule:nonzero;stroke:none"
             id="path196" />
        </g>
        <g
           id="g198"
           transform="translate(294.7136,677.7617)">
          <path
             d="m 0,0 v 5.111 c 0,0.682 -0.395,1.023 -1.184,1.023 -0.79,0 -1.184,-0.341 -1.184,-1.023 V 0 c 0,-0.682 0.394,-1.022 1.184,-1.022 C -0.395,-1.022 0,-0.682 0,0 M 0.829,5.111 V 0 c 0,-0.571 -0.168,-1.012 -0.503,-1.323 -0.336,-0.311 -0.837,-0.466 -1.504,-0.466 -0.667,0 -1.171,0.155 -1.51,0.466 -0.339,0.311 -0.509,0.752 -0.509,1.323 v 5.111 c 0,0.571 0.168,1.012 0.503,1.323 C -2.358,6.745 -1.857,6.9 -1.19,6.9 -0.523,6.9 -0.02,6.745 0.32,6.434 0.659,6.123 0.829,5.682 0.829,5.111"
             style="fill:#1d1d1b;fill-opacity:1;fill-rule:nonzero;stroke:none"
             id="path200" />
        </g>
        <g
           id="g202"
           transform="translate(298.5619,676.1643)">
          <path
             d="M 0,0 H -0.829 V 8.306 H 0 L 2.569,1.917 V 8.306 H 3.398 V 0 H 2.569 L 0,6.389 Z"
             style="fill:#1d1d1b;fill-opacity:1;fill-rule:nonzero;stroke:none"
             id="path204" />
        </g>
        <g
           id="g206"
           transform="translate(307.8215,676.1643)">
          <path
             d="m 0,0 h -3.493 v 8.306 h 3.375 V 7.539 H -2.664 V 4.6 h 2.072 V 3.834 H -2.664 V 0.767 H 0 Z"
             style="fill:#1d1d1b;fill-opacity:1;fill-rule:nonzero;stroke:none"
             id="path208" />
        </g>
        <g
           id="g210"
           transform="translate(313.363,677.7617)">
          <path
             d="m 0,0 c 0,-1.193 -0.667,-1.789 -2.001,-1.789 -1.334,0 -2.001,0.596 -2.001,1.789 v 1.086 h 0.829 v -1.137 c 0,-0.307 0.098,-0.545 0.296,-0.716 0.197,-0.17 0.489,-0.255 0.876,-0.255 0.387,0 0.679,0.085 0.876,0.255 0.197,0.171 0.296,0.403 0.296,0.697 0,0.294 -0.029,0.528 -0.089,0.702 -0.059,0.175 -0.179,0.36 -0.361,0.556 l -2.084,2.198 c -0.245,0.264 -0.412,0.522 -0.503,0.773 -0.091,0.252 -0.136,0.569 -0.136,0.952 0,0.571 0.163,1.012 0.491,1.323 0.328,0.311 0.823,0.466 1.486,0.466 1.271,0 1.907,-0.596 1.907,-1.789 V 4.025 h -0.829 v 1.137 c 0,0.307 -0.093,0.546 -0.279,0.716 -0.185,0.17 -0.463,0.256 -0.834,0.256 -0.371,0 -0.65,-0.086 -0.835,-0.256 -0.186,-0.17 -0.278,-0.405 -0.278,-0.703 0,-0.298 0.027,-0.532 0.082,-0.703 0.056,-0.17 0.178,-0.349 0.368,-0.536 L -0.604,1.738 C -0.375,1.465 -0.217,1.203 -0.13,0.952 -0.043,0.701 0,0.383 0,0"
             style="fill:#1d1d1b;fill-opacity:1;fill-rule:nonzero;stroke:none"
             id="path212" />
        </g>
        <g
           id="g214"
           transform="translate(319.8754,676.931)">
          <path
             d="M 0,0 V -0.767 H -2.013 V 0 h 0.592 V 6.773 H -2.013 V 7.539 H 0 V 6.773 H -0.592 V 0 Z"
             style="fill:#1d1d1b;fill-opacity:1;fill-rule:nonzero;stroke:none"
             id="path216" />
        </g>
        <g
           id="g218"
           transform="translate(322.7173,676.1643)">
          <path
             d="M 0,0 H -0.829 V 8.306 H 0 L 2.57,1.917 V 8.306 H 3.398 V 0 H 2.57 L 0,6.389 Z"
             style="fill:#1d1d1b;fill-opacity:1;fill-rule:nonzero;stroke:none"
             id="path220" />
        </g>
        <g
           id="g222"
           transform="translate(331.5625,684.4703)">
          <path
             d="m 0,0 v -0.767 h -1.539 v -7.539 h -0.829 v 7.539 h -1.54 V 0 Z"
             style="fill:#1d1d1b;fill-opacity:1;fill-rule:nonzero;stroke:none"
             id="path224" />
        </g>
        <g
           id="g226"
           transform="translate(336.5949,676.1643)">
          <path
             d="m 0,0 h -3.493 v 8.306 h 3.375 V 7.539 H -2.664 V 4.6 h 2.072 V 3.834 H -2.664 V 0.767 H 0 Z"
             style="fill:#1d1d1b;fill-opacity:1;fill-rule:nonzero;stroke:none"
             id="path228" />
        </g>
        <g
           id="g230"
           transform="translate(339.9458,679.6145)">
          <path
             d="M 0,0 V 0.767 H 2.155 V -3.45 H 1.8 L 1.492,-2.632 C 1.326,-2.939 1.109,-3.184 0.841,-3.367 0.572,-3.55 0.28,-3.642 -0.036,-3.642 c -1.144,0 -1.717,0.596 -1.717,1.789 v 5.111 c 0,0.571 0.162,1.012 0.486,1.323 0.324,0.311 0.809,0.466 1.457,0.466 0.647,0 1.136,-0.155 1.468,-0.466 C 1.989,4.27 2.155,3.829 2.155,3.258 V 2.556 H 1.326 v 0.702 c 0,0.682 -0.375,1.023 -1.125,1.023 -0.75,0 -1.125,-0.341 -1.125,-1.023 v -5.111 c 0,-0.324 0.063,-0.575 0.19,-0.754 0.126,-0.179 0.357,-0.268 0.693,-0.268 0.335,0 0.647,0.145 0.935,0.434 0.288,0.29 0.432,0.571 0.432,0.844 V 0 Z"
             style="fill:#1d1d1b;fill-opacity:1;fill-rule:nonzero;stroke:none"
             id="path232" />
        </g>
        <g
           id="g234"
           transform="translate(347.1334,680.8923)">
          <path
             d="m 0,0 v 1.789 c 0,0.324 -0.091,0.575 -0.272,0.754 -0.182,0.179 -0.443,0.268 -0.782,0.268 h -0.959 v -3.833 h 0.959 C -0.351,-1.022 0,-0.682 0,0 m -2.013,-4.728 h -0.829 v 8.306 h 1.788 C -0.438,3.578 0.03,3.42 0.349,3.105 0.669,2.79 0.829,2.351 0.829,1.789 V 0 c 0,-0.869 -0.348,-1.423 -1.042,-1.661 L 1.243,-4.728 H 0.331 l -1.385,2.939 h -0.959 z"
             style="fill:#1d1d1b;fill-opacity:1;fill-rule:nonzero;stroke:none"
             id="path236" />
        </g>
        <g
           id="g238"
           transform="translate(351.6802,683.4736)">
          <path
             d="m 0,0 -0.971,-4.626 h 1.942 z m -0.616,0.997 h 1.244 l 1.74,-8.306 H 1.539 l -0.402,1.916 h -2.262 l -0.403,-1.916 h -0.828 z"
             style="fill:#1d1d1b;fill-opacity:1;fill-rule:nonzero;stroke:none"
             id="path240" />
        </g>
        <g
           id="g242"
           transform="translate(355.7061,676.1643)">
          <path
             d="M 0,0 V 8.306 H 0.829 V 0.767 H 2.996 V 0 Z"
             style="fill:#1d1d1b;fill-opacity:1;fill-rule:nonzero;stroke:none"
             id="path244" />
        </g>
        <g
           id="g246"
           transform="translate(363.6158,676.1643)">
          <path
             d="m 0,0 h -3.493 v 8.306 h 3.375 V 7.539 H -2.664 V 4.6 h 2.072 V 3.834 H -2.664 V 0.767 H 0 Z"
             style="fill:#1d1d1b;fill-opacity:1;fill-rule:nonzero;stroke:none"
             id="path248" />
        </g>
        <g
           id="g250"
           transform="translate(369.1572,677.7617)">
          <path
             d="m 0,0 c 0,-1.193 -0.667,-1.789 -2.001,-1.789 -1.334,0 -2.001,0.596 -2.001,1.789 v 1.086 h 0.829 v -1.137 c 0,-0.307 0.098,-0.545 0.296,-0.716 0.197,-0.17 0.489,-0.255 0.876,-0.255 0.387,0 0.679,0.085 0.876,0.255 0.197,0.171 0.296,0.403 0.296,0.697 0,0.294 -0.029,0.528 -0.089,0.702 -0.059,0.175 -0.179,0.36 -0.361,0.556 l -2.084,2.198 c -0.245,0.264 -0.413,0.522 -0.503,0.773 -0.091,0.252 -0.136,0.569 -0.136,0.952 0,0.571 0.163,1.012 0.491,1.323 0.328,0.311 0.823,0.466 1.486,0.466 1.271,0 1.907,-0.596 1.907,-1.789 V 4.025 h -0.829 v 1.137 c 0,0.307 -0.093,0.546 -0.279,0.716 -0.185,0.17 -0.463,0.256 -0.834,0.256 -0.372,0 -0.65,-0.086 -0.835,-0.256 -0.186,-0.17 -0.278,-0.405 -0.278,-0.703 0,-0.298 0.027,-0.532 0.082,-0.703 0.056,-0.17 0.178,-0.349 0.368,-0.536 L -0.604,1.738 C -0.375,1.465 -0.217,1.203 -0.13,0.952 -0.044,0.701 0,0.383 0,0"
             style="fill:#1d1d1b;fill-opacity:1;fill-rule:nonzero;stroke:none"
             id="path252" />
        </g>
        <g
           id="g254"
           transform="translate(376.9721,677.9532)">
          <path
             d="M 0,0 V 4.728 C 0,5.001 -0.093,5.239 -0.278,5.444 -0.464,5.648 -0.722,5.75 -1.054,5.75 h -1.077 v -6.772 h 1.077 c 0.332,0 0.59,0.1 0.776,0.3 C -0.093,-0.522 0,-0.281 0,0 M -1.054,-1.789 H -2.96 v 8.306 h 1.906 c 0.616,0 1.084,-0.158 1.403,-0.473 0.32,-0.315 0.48,-0.754 0.48,-1.316 V 0 c 0,-0.571 -0.158,-1.012 -0.474,-1.323 -0.316,-0.311 -0.785,-0.466 -1.409,-0.466"
             style="fill:#1d1d1b;fill-opacity:1;fill-rule:nonzero;stroke:none"
             id="path256" />
        </g>
        <g
           id="g258"
           transform="translate(383.4846,676.1643)">
          <path
             d="m 0,0 h -3.493 v 8.306 h 3.375 V 7.539 H -2.664 V 4.6 h 2.072 V 3.834 H -2.664 V 0.767 H 0 Z"
             style="fill:#1d1d1b;fill-opacity:1;fill-rule:nonzero;stroke:none"
             id="path260" />
        </g>
        <g
           id="g262"
           transform="translate(390.826,680.8923)">
          <path
             d="m 0,0 v 1.789 c 0,0.324 -0.091,0.575 -0.272,0.754 -0.182,0.179 -0.443,0.268 -0.782,0.268 h -0.959 v -3.833 h 0.959 C -0.351,-1.022 0,-0.682 0,0 m -2.013,-4.728 h -0.829 v 8.306 h 1.788 C -0.438,3.578 0.03,3.42 0.349,3.105 0.669,2.79 0.829,2.351 0.829,1.789 V 0 c 0,-0.869 -0.348,-1.423 -1.042,-1.661 L 1.243,-4.728 H 0.331 l -1.385,2.939 h -0.959 z"
             style="fill:#1d1d1b;fill-opacity:1;fill-rule:nonzero;stroke:none"
             id="path264" />
        </g>
        <g
           id="g266"
           transform="translate(397.22,676.1643)">
          <path
             d="m 0,0 h -3.493 v 8.306 h 3.375 V 7.539 H -2.664 V 4.6 h 2.072 V 3.834 H -2.664 V 0.767 H 0 Z"
             style="fill:#1d1d1b;fill-opacity:1;fill-rule:nonzero;stroke:none"
             id="path268" />
        </g>
        <g
           id="g270"
           transform="translate(402.7615,677.7617)">
          <path
             d="m 0,0 c 0,-1.193 -0.667,-1.789 -2.001,-1.789 -1.334,0 -2.001,0.596 -2.001,1.789 v 1.086 h 0.829 v -1.137 c 0,-0.307 0.098,-0.545 0.296,-0.716 0.197,-0.17 0.489,-0.255 0.876,-0.255 0.387,0 0.679,0.085 0.876,0.255 0.197,0.171 0.296,0.403 0.296,0.697 0,0.294 -0.029,0.528 -0.089,0.702 -0.059,0.175 -0.179,0.36 -0.361,0.556 l -2.084,2.198 c -0.245,0.264 -0.412,0.522 -0.503,0.773 -0.091,0.252 -0.136,0.569 -0.136,0.952 0,0.571 0.163,1.012 0.491,1.323 0.328,0.311 0.823,0.466 1.486,0.466 1.271,0 1.907,-0.596 1.907,-1.789 V 4.025 h -0.829 v 1.137 c 0,0.307 -0.093,0.546 -0.279,0.716 -0.185,0.17 -0.463,0.256 -0.834,0.256 -0.371,0 -0.65,-0.086 -0.835,-0.256 -0.186,-0.17 -0.278,-0.405 -0.278,-0.703 0,-0.298 0.027,-0.532 0.082,-0.703 0.056,-0.17 0.178,-0.349 0.368,-0.536 L -0.604,1.738 C -0.375,1.465 -0.217,1.203 -0.13,0.952 -0.043,0.701 0,0.383 0,0"
             style="fill:#1d1d1b;fill-opacity:1;fill-rule:nonzero;stroke:none"
             id="path272" />
        </g>
        <g
           id="g274"
           transform="translate(406.5504,676.931)">
          <path
             d="M 0,0 V -0.767 H -2.013 V 0 h 0.592 V 6.773 H -2.013 V 7.539 H 0 V 6.773 H -0.592 V 0 Z"
             style="fill:#1d1d1b;fill-opacity:1;fill-rule:nonzero;stroke:none"
             id="path276" />
        </g>
        <g
           id="g278"
           transform="translate(411.5237,677.9532)">
          <path
             d="M 0,0 V 4.728 C 0,5.001 -0.093,5.239 -0.278,5.444 -0.464,5.648 -0.722,5.75 -1.054,5.75 h -1.077 v -6.772 h 1.077 c 0.332,0 0.59,0.1 0.776,0.3 C -0.093,-0.522 0,-0.281 0,0 M -1.054,-1.789 H -2.96 v 8.306 h 1.906 c 0.616,0 1.084,-0.158 1.403,-0.473 0.32,-0.315 0.48,-0.754 0.48,-1.316 V 0 c 0,-0.571 -0.158,-1.012 -0.474,-1.323 -0.316,-0.311 -0.785,-0.466 -1.409,-0.466"
             style="fill:#1d1d1b;fill-opacity:1;fill-rule:nonzero;stroke:none"
             id="path280" />
        </g>
        <g
           id="g282"
           transform="translate(417.6217,677.7617)">
          <path
             d="M 0,0 V 6.709 H 0.829 V 0 c 0,-0.571 -0.168,-1.012 -0.503,-1.323 -0.336,-0.311 -0.837,-0.466 -1.504,-0.466 -0.667,0 -1.171,0.155 -1.51,0.466 -0.339,0.311 -0.509,0.752 -0.509,1.323 v 6.709 h 0.829 V 0 c 0,-0.682 0.394,-1.022 1.184,-1.022 C -0.395,-1.022 0,-0.682 0,0"
             style="fill:#1d1d1b;fill-opacity:1;fill-rule:nonzero;stroke:none"
             id="path284" />
        </g>
        <g
           id="g286"
           transform="translate(423.7198,677.7617)">
          <path
             d="m 0,0 v 5.111 c 0,0.682 -0.395,1.023 -1.184,1.023 -0.79,0 -1.184,-0.341 -1.184,-1.023 V 0 c 0,-0.682 0.394,-1.022 1.184,-1.022 C -0.395,-1.022 0,-0.682 0,0 M 0.829,5.111 V 0 c 0,-0.571 -0.168,-1.012 -0.503,-1.323 -0.336,-0.311 -0.837,-0.466 -1.504,-0.466 -0.667,0 -1.171,0.155 -1.51,0.466 -0.339,0.311 -0.509,0.752 -0.509,1.323 v 5.111 c 0,0.571 0.167,1.012 0.503,1.323 C -2.358,6.745 -1.857,6.9 -1.19,6.9 -0.523,6.9 -0.02,6.745 0.32,6.434 0.659,6.123 0.829,5.682 0.829,5.111"
             style="fill:#1d1d1b;fill-opacity:1;fill-rule:nonzero;stroke:none"
             id="path288" />
        </g>
        <g
           id="g290"
           transform="translate(430.5047,677.7617)">
          <path
             d="m 0,0 c 0,-1.193 -0.667,-1.789 -2.001,-1.789 -1.334,0 -2.001,0.596 -2.001,1.789 v 1.086 h 0.829 v -1.137 c 0,-0.307 0.098,-0.545 0.296,-0.716 0.197,-0.17 0.489,-0.255 0.876,-0.255 0.387,0 0.679,0.085 0.876,0.255 0.197,0.171 0.296,0.403 0.296,0.697 0,0.294 -0.029,0.528 -0.089,0.702 -0.059,0.175 -0.179,0.36 -0.361,0.556 l -2.084,2.198 c -0.245,0.264 -0.412,0.522 -0.503,0.773 -0.091,0.252 -0.136,0.569 -0.136,0.952 0,0.571 0.163,1.012 0.491,1.323 0.328,0.311 0.823,0.466 1.486,0.466 1.271,0 1.907,-0.596 1.907,-1.789 V 4.025 h -0.829 v 1.137 c 0,0.307 -0.093,0.546 -0.279,0.716 -0.185,0.17 -0.463,0.256 -0.834,0.256 -0.371,0 -0.65,-0.086 -0.835,-0.256 -0.186,-0.17 -0.278,-0.405 -0.278,-0.703 0,-0.298 0.027,-0.532 0.082,-0.703 0.056,-0.17 0.178,-0.349 0.368,-0.536 L -0.604,1.738 C -0.375,1.465 -0.217,1.203 -0.13,0.952 -0.043,0.701 0,0.383 0,0"
             style="fill:#1d1d1b;fill-opacity:1;fill-rule:nonzero;stroke:none"
             id="path292" />
        </g>
        <g
           id="g294"
           transform="translate(438.8525,676.1643)">
          <path
             d="m 0,0 h -3.493 v 8.306 h 3.375 V 7.539 H -2.664 V 4.6 h 2.072 V 3.834 H -2.664 V 0.767 H 0 Z"
             style="fill:#1d1d1b;fill-opacity:1;fill-rule:nonzero;stroke:none"
             id="path296" />
        </g>
        <g
           id="g298"
           transform="translate(444.394,677.7617)">
          <path
             d="m 0,0 c 0,-1.193 -0.667,-1.789 -2.001,-1.789 -1.334,0 -2.001,0.596 -2.001,1.789 v 1.086 h 0.829 v -1.137 c 0,-0.307 0.098,-0.545 0.296,-0.716 0.197,-0.17 0.489,-0.255 0.876,-0.255 0.387,0 0.679,0.085 0.876,0.255 0.197,0.171 0.296,0.403 0.296,0.697 0,0.294 -0.029,0.528 -0.089,0.702 -0.059,0.175 -0.179,0.36 -0.361,0.556 l -2.084,2.198 c -0.245,0.264 -0.412,0.522 -0.503,0.773 -0.091,0.252 -0.136,0.569 -0.136,0.952 0,0.571 0.163,1.012 0.491,1.323 0.328,0.311 0.823,0.466 1.486,0.466 1.271,0 1.907,-0.596 1.907,-1.789 V 4.025 h -0.829 v 1.137 c 0,0.307 -0.093,0.546 -0.279,0.716 -0.185,0.17 -0.463,0.256 -0.834,0.256 -0.372,0 -0.65,-0.086 -0.835,-0.256 -0.186,-0.17 -0.278,-0.405 -0.278,-0.703 0,-0.298 0.027,-0.532 0.082,-0.703 0.056,-0.17 0.178,-0.349 0.368,-0.536 L -0.604,1.738 C -0.375,1.465 -0.217,1.203 -0.13,0.952 -0.044,0.701 0,0.383 0,0"
             style="fill:#1d1d1b;fill-opacity:1;fill-rule:nonzero;stroke:none"
             id="path300" />
        </g>
        <g
           id="g302"
           transform="translate(449.2487,680.509)">
          <path
             d="m 0,0 v 2.172 c 0,0.324 -0.091,0.575 -0.272,0.754 -0.182,0.179 -0.443,0.269 -0.782,0.269 h -0.959 v -4.217 h 0.959 C -0.351,-1.022 0,-0.682 0,0 m -2.013,-4.345 h -0.829 v 8.306 h 1.788 c 0.616,0 1.084,-0.157 1.403,-0.472 0.32,-0.316 0.48,-0.754 0.48,-1.317 L 0.829,0 c 0,-0.571 -0.158,-1.012 -0.474,-1.323 -0.316,-0.311 -0.785,-0.466 -1.409,-0.466 h -0.959 z"
             style="fill:#1d1d1b;fill-opacity:1;fill-rule:nonzero;stroke:none"
             id="path304" />
        </g>
        <g
           id="g306"
           transform="translate(455.4651,676.1643)">
          <path
             d="m 0,0 h -3.493 v 8.306 h 3.375 V 7.539 H -2.664 V 4.6 h 2.072 V 3.834 H -2.664 V 0.767 H 0 Z"
             style="fill:#1d1d1b;fill-opacity:1;fill-rule:nonzero;stroke:none"
             id="path308" />
        </g>
        <g
           id="g310"
           transform="translate(460.1423,677.7617)">
          <path
             d="M 0,0 V 0.703 H 0.829 V 0 c 0,-0.571 -0.162,-1.012 -0.486,-1.323 -0.323,-0.311 -0.809,-0.466 -1.456,-0.466 -0.647,0 -1.137,0.155 -1.468,0.466 -0.332,0.311 -0.498,0.752 -0.498,1.323 v 5.111 c 0,0.571 0.162,1.012 0.486,1.323 C -2.27,6.745 -1.784,6.9 -1.137,6.9 -0.49,6.9 0,6.745 0.332,6.434 0.663,6.123 0.829,5.682 0.829,5.111 V 3.897 H 0 v 1.214 c 0,0.682 -0.375,1.023 -1.125,1.023 -0.75,0 -1.125,-0.341 -1.125,-1.023 V 0 c 0,-0.682 0.375,-1.022 1.125,-1.022 C -0.375,-1.022 0,-0.682 0,0"
             style="fill:#1d1d1b;fill-opacity:1;fill-rule:nonzero;stroke:none"
             id="path312" />
        </g>
        <g
           id="g314"
           transform="translate(464.701,676.931)">
          <path
             d="M 0,0 V -0.767 H -2.013 V 0 h 0.592 V 6.773 H -2.013 V 7.539 H 0 V 6.773 H -0.592 V 0 Z"
             style="fill:#1d1d1b;fill-opacity:1;fill-rule:nonzero;stroke:none"
             id="path316" />
        </g>
        <g
           id="g318"
           transform="translate(468.3599,683.4736)">
          <path
             d="m 0,0 -0.971,-4.626 h 1.942 z m -0.616,0.997 h 1.244 l 1.74,-8.306 H 1.539 l -0.402,1.916 h -2.262 l -0.403,-1.916 h -0.828 z"
             style="fill:#1d1d1b;fill-opacity:1;fill-rule:nonzero;stroke:none"
             id="path320" />
        </g>
        <g
           id="g322"
           transform="translate(472.3857,676.1643)">
          <path
             d="M 0,0 V 8.306 H 0.829 V 0.767 H 2.996 V 0 Z"
             style="fill:#1d1d1b;fill-opacity:1;fill-rule:nonzero;stroke:none"
             id="path324" />
        </g>
        <g
           id="g326"
           transform="translate(480.2953,676.1643)">
          <path
             d="m 0,0 h -3.493 v 8.306 h 3.375 V 7.539 H -2.664 V 4.6 h 2.072 V 3.834 H -2.664 V 0.767 H 0 Z"
             style="fill:#1d1d1b;fill-opacity:1;fill-rule:nonzero;stroke:none"
             id="path328" />
        </g>
        <g
           id="g330"
           transform="translate(485.8369,677.7617)">
          <path
             d="m 0,0 c 0,-1.193 -0.667,-1.789 -2.001,-1.789 -1.334,0 -2.001,0.596 -2.001,1.789 v 1.086 h 0.829 v -1.137 c 0,-0.307 0.098,-0.545 0.296,-0.716 0.197,-0.17 0.489,-0.255 0.876,-0.255 0.387,0 0.679,0.085 0.876,0.255 0.197,0.171 0.296,0.403 0.296,0.697 0,0.294 -0.029,0.528 -0.089,0.702 -0.059,0.175 -0.179,0.36 -0.361,0.556 l -2.084,2.198 c -0.245,0.264 -0.413,0.522 -0.503,0.773 -0.091,0.252 -0.136,0.569 -0.136,0.952 0,0.571 0.163,1.012 0.491,1.323 0.328,0.311 0.823,0.466 1.486,0.466 1.271,0 1.907,-0.596 1.907,-1.789 V 4.025 h -0.829 v 1.137 c 0,0.307 -0.093,0.546 -0.279,0.716 -0.185,0.17 -0.463,0.256 -0.834,0.256 -0.372,0 -0.65,-0.086 -0.835,-0.256 -0.186,-0.17 -0.278,-0.405 -0.278,-0.703 0,-0.298 0.027,-0.532 0.082,-0.703 0.056,-0.17 0.178,-0.349 0.368,-0.536 L -0.604,1.738 C -0.375,1.465 -0.217,1.203 -0.13,0.952 -0.044,0.701 0,0.383 0,0"
             style="fill:#1d1d1b;fill-opacity:1;fill-rule:nonzero;stroke:none"
             id="path332" />
        </g>
        <g
           id="g334"
           transform="translate(387.9841,654.2687)">
          <path
             d="M 0,0 V 16.958 H 9.364 V 14.957 H 1.714 V 9.763 H 8.878 V 7.773 H 1.714 V 2.001 h 7.95 V 0 Z"
             style="fill:#e30613;fill-opacity:1;fill-rule:nonzero;stroke:none"
             id="path336" />
        </g>
        <path
           d="m 400.263,656.64 h 1.811 v -2.371 h -1.811 z"
           style="fill:#e30613;fill-opacity:1;fill-rule:nonzero;stroke:none"
           id="path338" />
        <g
           id="g340"
           transform="translate(404.4594,659.7171)">
          <path
             d="m 0,0 1.617,0.185 c 0.076,-0.848 0.254,-1.544 0.534,-2.088 0.28,-0.544 0.714,-0.983 1.303,-1.319 0.589,-0.335 1.251,-0.503 1.988,-0.503 0.653,0 1.23,0.127 1.731,0.382 0.501,0.254 0.873,0.603 1.118,1.047 0.244,0.443 0.366,0.927 0.366,1.452 0,0.532 -0.118,0.996 -0.353,1.393 C 8.068,0.946 7.679,1.28 7.138,1.55 6.79,1.727 6.022,2.003 4.832,2.377 3.642,2.751 2.809,3.104 2.332,3.435 1.714,3.859 1.253,4.386 0.95,5.014 0.646,5.643 0.495,6.346 0.495,7.125 c 0,0.857 0.185,1.656 0.556,2.401 0.371,0.744 0.913,1.309 1.626,1.694 0.712,0.386 1.504,0.579 2.376,0.579 0.96,0 1.806,-0.203 2.54,-0.608 0.733,-0.404 1.297,-1 1.691,-1.787 C 9.679,8.618 9.891,7.727 9.92,6.732 L 8.277,6.57 C 8.189,7.642 7.89,8.452 7.381,8.999 6.871,9.547 6.119,9.821 5.124,9.821 4.087,9.821 3.332,9.572 2.858,9.075 2.384,8.577 2.147,7.977 2.147,7.276 2.147,6.667 2.314,6.165 2.65,5.772 2.98,5.379 3.841,4.976 5.234,4.563 6.627,4.151 7.582,3.79 8.101,3.482 8.854,3.027 9.411,2.45 9.77,1.752 10.129,1.054 10.309,0.25 10.309,-0.659 10.309,-1.562 10.112,-2.412 9.717,-3.21 9.323,-4.008 8.756,-4.629 8.017,-5.072 7.278,-5.516 6.446,-5.738 5.521,-5.738 c -1.172,0 -2.154,0.224 -2.946,0.671 -0.792,0.448 -1.413,1.12 -1.864,2.019 C 0.261,-2.15 0.023,-1.134 0,0"
             style="fill:#e30613;fill-opacity:1;fill-rule:nonzero;stroke:none"
             id="path342" />
        </g>
        <path
           d="m 417.357,656.64 h 1.811 v -2.371 h -1.811 z"
           style="fill:#e30613;fill-opacity:1;fill-rule:nonzero;stroke:none"
           id="path344" />
        <g
           id="g346"
           transform="translate(423.8496,663.1642)">
          <path
             d="M 0,0 H 3.348 C 4.455,0 5.241,0.27 5.707,0.81 6.172,1.349 6.405,2.109 6.405,3.088 6.405,3.798 6.268,4.405 5.994,4.91 5.72,5.415 5.359,5.749 4.912,5.911 4.623,6.011 4.09,6.061 3.313,6.061 H 0 Z M -1.714,-8.895 V 8.063 h 4.885 c 0.86,0 1.517,-0.054 1.97,-0.162 C 5.777,7.762 6.31,7.497 6.74,7.108 7.17,6.719 7.516,6.173 7.778,5.471 8.04,4.77 8.171,3.998 8.171,3.158 8.171,1.716 7.821,0.495 7.12,-0.503 6.419,-1.502 5.153,-2.001 3.322,-2.001 H 0 v -6.894 z"
             style="fill:#e30613;fill-opacity:1;fill-rule:nonzero;stroke:none"
             id="path348" />
        </g>
        <path
           d="m 432.118,656.64 h 1.811 v -2.371 h -1.811 z"
           style="fill:#e30613;fill-opacity:1;fill-rule:nonzero;stroke:none"
           id="path350" />
        <g
           id="g352"
           transform="translate(441.3408,659.7171)">
          <path
             d="m 0,0 1.617,0.185 c 0.076,-0.848 0.254,-1.544 0.534,-2.088 0.28,-0.544 0.714,-0.983 1.303,-1.319 0.589,-0.335 1.251,-0.503 1.988,-0.503 0.653,0 1.23,0.127 1.731,0.382 0.501,0.254 0.873,0.603 1.118,1.047 0.244,0.443 0.366,0.927 0.366,1.452 0,0.532 -0.118,0.996 -0.353,1.393 C 8.068,0.946 7.679,1.28 7.138,1.55 6.79,1.727 6.022,2.003 4.832,2.377 3.642,2.751 2.809,3.104 2.332,3.435 1.714,3.859 1.253,4.386 0.95,5.014 0.646,5.643 0.495,6.346 0.495,7.125 c 0,0.857 0.185,1.656 0.556,2.401 0.371,0.744 0.913,1.309 1.626,1.694 0.712,0.386 1.504,0.579 2.376,0.579 0.96,0 1.806,-0.203 2.54,-0.608 0.733,-0.404 1.297,-1 1.691,-1.787 C 9.679,8.618 9.891,7.727 9.92,6.732 L 8.277,6.57 C 8.189,7.642 7.89,8.452 7.381,8.999 6.871,9.547 6.119,9.821 5.124,9.821 4.087,9.821 3.332,9.572 2.858,9.075 2.384,8.577 2.147,7.977 2.147,7.276 2.147,6.667 2.314,6.165 2.65,5.772 2.98,5.379 3.841,4.976 5.234,4.563 6.627,4.151 7.582,3.79 8.101,3.482 8.854,3.027 9.411,2.45 9.77,1.752 10.129,1.054 10.309,0.25 10.309,-0.659 10.309,-1.562 10.112,-2.412 9.717,-3.21 9.323,-4.008 8.756,-4.629 8.017,-5.072 7.278,-5.516 6.446,-5.738 5.521,-5.738 c -1.172,0 -2.154,0.224 -2.946,0.671 -0.792,0.448 -1.413,1.12 -1.864,2.019 C 0.261,-2.15 0.023,-1.134 0,0"
             style="fill:#e30613;fill-opacity:1;fill-rule:nonzero;stroke:none"
             id="path354" />
        </g>
        <path
           d="m 454.238,656.64 h 1.811 v -2.371 h -1.811 z"
           style="fill:#e30613;fill-opacity:1;fill-rule:nonzero;stroke:none"
           id="path356" />
        <g
           id="g358"
           transform="translate(461.3318,661.2324)">
          <path
             d="M 0,0 H 4.39 L 3.039,4.696 C 2.626,6.123 2.32,7.295 2.12,8.213 1.955,7.126 1.723,6.046 1.422,4.974 Z M -3.737,-6.964 1.237,9.994 h 1.846 l 5.3,-16.958 H 6.431 L 4.92,-1.828 h -5.415 l -1.422,-5.136 z"
             style="fill:#e30613;fill-opacity:1;fill-rule:nonzero;stroke:none"
             id="path360" />
        </g>
        <path
           d="m 471.332,656.64 h 1.811 v -2.371 h -1.811 z"
           style="fill:#e30613;fill-opacity:1;fill-rule:nonzero;stroke:none"
           id="path362" />
        <g
           id="g364"
           transform="translate(475.5278,659.7171)">
          <path
             d="m 0,0 1.617,0.185 c 0.076,-0.848 0.254,-1.544 0.534,-2.088 0.28,-0.544 0.714,-0.983 1.303,-1.319 0.589,-0.335 1.251,-0.503 1.988,-0.503 0.653,0 1.23,0.127 1.731,0.382 0.501,0.254 0.873,0.603 1.118,1.047 0.244,0.443 0.366,0.927 0.366,1.452 0,0.532 -0.118,0.996 -0.353,1.393 C 8.068,0.946 7.679,1.28 7.138,1.55 6.79,1.727 6.022,2.003 4.832,2.377 3.642,2.751 2.809,3.104 2.332,3.435 1.714,3.859 1.253,4.386 0.95,5.014 0.646,5.643 0.495,6.346 0.495,7.125 c 0,0.857 0.185,1.656 0.556,2.401 0.371,0.744 0.913,1.309 1.626,1.694 0.712,0.386 1.504,0.579 2.376,0.579 0.96,0 1.806,-0.203 2.54,-0.608 0.733,-0.404 1.297,-1 1.691,-1.787 C 9.679,8.618 9.891,7.727 9.92,6.732 L 8.277,6.57 C 8.189,7.642 7.89,8.452 7.381,8.999 6.871,9.547 6.119,9.821 5.124,9.821 4.087,9.821 3.332,9.572 2.858,9.075 2.384,8.577 2.147,7.977 2.147,7.276 2.147,6.667 2.314,6.165 2.65,5.772 2.98,5.379 3.841,4.976 5.234,4.563 6.627,4.151 7.582,3.79 8.101,3.482 8.854,3.027 9.411,2.45 9.77,1.752 10.129,1.054 10.309,0.25 10.309,-0.659 10.309,-1.562 10.112,-2.412 9.717,-3.21 9.323,-4.008 8.756,-4.629 8.017,-5.072 7.278,-5.516 6.446,-5.738 5.521,-5.738 c -1.172,0 -2.154,0.224 -2.946,0.671 -0.792,0.448 -1.413,1.12 -1.864,2.019 C 0.261,-2.15 0.023,-1.134 0,0"
             style="fill:#e30613;fill-opacity:1;fill-rule:nonzero;stroke:none"
             id="path366" />
        </g>
      </g>
    </g>
  </g>
</svg>
